<?xml version="1.0" encoding="utf-8"?>
<!-- Generator: Adobe Illustrator 18.0.0, SVG Export Plug-In . SVG Version: 6.00 Build 0)  -->
<!DOCTYPE svg PUBLIC "-//W3C//DTD SVG 1.1//EN" "http://www.w3.org/Graphics/SVG/1.1/DTD/svg11.dtd">
<svg version="1.1" id="Layer_1" xmlns="http://www.w3.org/2000/svg" xmlns:xlink="http://www.w3.org/1999/xlink" x="0px" y="0px"
	 viewBox="0 0 155.9 127.6" style="enable-background:new 0 0 155.9 127.6;" xml:space="preserve">
<style type="text/css">
	.st0{opacity:0.53;fill:none;stroke:#FCF9CE;stroke-width:4;stroke-linecap:round;stroke-linejoin:round;stroke-miterlimit:10;}
	.st1{fill:url(#SVGID_1_);}
	.st2{fill:url(#SVGID_2_);}
	.st3{fill:#8A6427;}
</style>
<path class="st0" d="M15.5,3.3c0,0,5.2,2.3,8,8.1"/>
<path class="st0" d="M6,8.4c0,0,2.8-4.6,4-5.1s3.2-0.5,3.2-0.5"/>
<path class="st0" d="M27.6,22.8c0,0-0.6-4.2-2.1-7.5"/>
<path class="st0" d="M3.5,14.9c0,0-1.7,6.1-1,9.6s2,4.7,5.5,4.9s5.9-0.3,8.1,0.3c2.2,0.6,7.3,0.2,9.1-2.8"/>
<radialGradient id="SVGID_1_" cx="142.4111" cy="-427.9659" r="147.0933" gradientTransform="matrix(0.2011 0 0 0.1707 12.389 120.2871)" gradientUnits="userSpaceOnUse">
	<stop  offset="0" style="stop-color:#F7EC1C"/>
	<stop  offset="1" style="stop-color:#F8991D"/>
</radialGradient>
<path class="st1" d="M2.2,21.2c0,0-0.7,5.9,1.8,7.7s8.2,1.3,10.5,1.6s5.8,1.5,9-0.7s4.1-4.1,4.1-6.3"/>
<linearGradient id="SVGID_2_" gradientUnits="userSpaceOnUse" x1="14.4665" y1="23.925" x2="17.0614" y2="52.0168">
	<stop  offset="0" style="stop-color:#FFFFFF"/>
	<stop  offset="1" style="stop-color:#000000"/>
</linearGradient>
<path class="st2" d="M3.5,22.9c0,0,3.6,0.4,10.5,0.5c6.8,0.1,11.3-1.4,11.3-1.4c0.1,3.2-1,5.1-3.1,6.2s-3.9,0.8-6.9,0.6
	c-3-0.2-3.3,0.1-5.3,0.2S6.7,28.9,5,27.3C3.4,25.8,3.5,22.9,3.5,22.9"/>
<path class="st3" d="M3.5,22.9c0,0,0.9-9.1,3.3-13.8S11.2,3.7,14,4s5.3,2.8,7,5.3c1.7,2.5,4.2,7.6,4.2,12.6c0,0,0,0,0,0l0,0
	c0,0-2.8,1.1-7.8,1.3c-5,0.2-10.4,0.2-11.1,0S3.5,22.9,3.5,22.9z"/>
</svg>
